<svg width="39" height="29" viewBox="0 0 39 29" fill="none" xmlns="http://www.w3.org/2000/svg">
<g clip-path="url(#clip0_0_13)">
<path d="M34.644 13.2397L34.4607 12.8751L23.3559 1.60905C22.9454 0.308658 24.106 -0.432688 25.1908 0.269768L38.7316 13.7185C39.1812 14.2192 39.0101 14.8269 38.6094 15.3033L25.0687 28.7545C24.0278 29.5007 22.9796 28.4215 23.3559 27.2937C26.024 24.4158 28.9388 21.6813 31.6631 18.8885C32.4719 18.0596 33.8108 16.8735 34.4607 16.0301C34.556 15.9085 34.6953 15.8769 34.644 15.6655H0.923937C0.564772 15.663 -0.0167342 14.8196 0.000368925 14.3918C0.017472 13.964 0.633184 13.2372 1.0461 13.2372H34.644V13.2397Z" fill="white"/>
</g>
<defs>
<clipPath id="clip0_0_13">
<rect width="39" height="29" fill="white"/>
</clipPath>
</defs>
</svg>
