<svg width="39" height="29" viewBox="0 0 39 29" fill="none" xmlns="http://www.w3.org/2000/svg">
<g clip-path="url(#clip0_0_15)">
<path d="M4.35604 15.7603L4.53929 16.1249L15.6441 27.3909C16.0546 28.6913 14.894 29.4327 13.8092 28.7302L0.268396 15.2815C-0.181174 14.7808 -0.010142 14.1731 0.390558 13.6967L13.9313 0.245525C14.9722 -0.500683 16.0204 0.578524 15.6441 1.70634C12.976 4.58422 10.0612 7.3187 7.33687 10.1115C6.52814 10.9404 5.18921 12.1265 4.53929 12.9699C4.444 13.0915 4.30473 13.1231 4.35604 13.3345L38.0761 13.3345C38.4352 13.337 39.0167 14.1804 38.9996 14.6082C38.9825 15.036 38.3668 15.7628 37.9539 15.7628L4.35604 15.7627L4.35604 15.7603Z" fill="white"/>
</g>
<defs>
<clipPath id="clip0_0_15">
<rect width="39" height="29" fill="white" transform="translate(39 29) rotate(-180)"/>
</clipPath>
</defs>
</svg>
