<svg width="125" height="125" viewBox="0 0 125 125" fill="none" xmlns="http://www.w3.org/2000/svg">
<g clip-path="url(#clip0_57_618)">
<path d="M123.249 47.7421C123.009 46.7613 122.758 45.8405 122.478 44.9297C114.761 18.4763 90.0995 0 62.4952 0C28.0347 0 0 28.0348 0 62.5052C0 67.4896 0.590521 72.454 1.76156 77.2782L1.79158 77.3983C1.98175 78.199 2.19194 78.9897 2.41213 79.7404C10.0389 106.384 34.7507 124.99 62.4952 124.99C96.9656 124.99 125 96.9556 125 62.5052C125 57.4908 124.41 52.5264 123.249 47.7421ZM62.4952 122.989C35.6315 122.989 11.7203 104.983 4.33383 79.1699C4.13365 78.4893 3.93347 77.7687 3.76332 77.048L3.7333 76.9179C2.58228 72.2138 2.00177 67.3695 2.00177 62.5052C2.00177 29.1457 29.1357 2.00177 62.4952 2.00177C89.2088 2.00177 113.09 19.8876 120.566 45.5002C120.837 46.3809 121.077 47.2717 121.307 48.2126C122.428 52.8467 122.999 57.6509 122.999 62.5052C122.999 95.8546 95.8546 122.989 62.4952 122.989Z" fill="#C8B094"/>
<path d="M118.374 48.9232C118.164 48.0224 117.924 47.1716 117.674 46.3309C110.568 21.9994 87.8776 5.00442 62.4952 5.00442C30.7972 5.00442 5.00442 30.7972 5.00442 62.4952C5.00442 67.1193 5.56491 71.7233 6.64587 76.1072V76.1973C6.83603 76.9379 7.0262 77.6586 7.23639 78.3492C14.2426 102.861 36.9726 119.976 62.4952 119.976C94.1932 119.976 119.986 94.1932 119.986 62.4952C119.986 57.8911 119.445 53.3171 118.374 48.9232ZM5.72505 62.4952C5.72505 31.1975 31.1975 5.72505 62.4952 5.72505C87.5673 5.72505 109.967 22.5099 116.983 46.5411C117.013 46.6312 117.043 46.7313 117.063 46.8213C113.38 52.3963 109.126 57.8311 104.292 63.1157C98.4369 69.5314 92.3015 75.2464 85.8958 80.2709C79.4702 85.2853 73.1646 89.2988 66.9591 92.2915C60.7636 95.2941 55.3589 96.7854 50.7548 96.7854C48.8031 96.7854 47.1616 96.3651 45.8405 95.5343C44.5193 94.6936 43.4684 93.6227 42.7077 92.2915C41.937 90.9703 41.3765 89.509 41.0362 87.8976C40.6859 86.2962 40.5058 84.6647 40.5058 82.9833C40.5058 79.5002 40.9962 76.0171 41.9771 72.524C42.9479 69.051 44.199 65.9082 45.7404 63.1157C50.3444 62.1449 55.6391 60.6435 61.6344 58.6218C67.6197 56.61 73.2347 54.3079 78.4693 51.7157C83.6939 49.1434 88.1178 46.2809 91.741 43.1481C95.3642 40.0153 97.1858 36.7725 97.1858 33.4195C97.1858 30.637 96.2049 28.5052 94.2532 27.0439C92.3015 25.5826 89.5791 24.8519 86.096 24.8519C79.8205 24.8519 73.2747 26.7336 66.4387 30.4969C59.6126 34.2602 53.3371 39.0044 47.622 44.7195C41.957 50.3745 37.2929 56.5299 33.6297 63.2158C24.0412 66.1784 15.3435 70.3621 7.33648 75.887C6.27554 71.5131 5.73506 67.0092 5.73506 62.4952H5.72505ZM46.7813 60.8237C48.1725 57.751 50.2343 54.2679 52.9568 50.3645C55.6691 46.461 58.7018 42.7978 62.0548 39.3848C65.3977 35.9718 68.7707 33.1092 72.1937 30.8072C75.6067 28.5052 78.7795 27.3541 81.7121 27.3541C83.2435 27.3541 84.5346 27.8546 85.5755 28.8254C86.6265 29.7963 87.1469 31.2576 87.1469 33.2093C87.1469 36.8425 85.6056 40.2155 82.5429 43.3583C79.4702 46.491 75.8169 49.2435 71.5632 51.6156C67.3094 53.9877 62.8855 55.9694 58.2815 57.5808C53.6874 59.1822 49.844 60.2632 46.7813 60.8237ZM62.4952 119.255C37.2929 119.255 14.8531 102.35 7.927 78.149C7.927 78.109 7.90698 78.0689 7.89697 78.0289C15.3435 72.8043 23.4007 68.7807 32.2485 65.8481C29.3859 71.7333 27.9647 77.3783 27.9647 82.7731C27.9647 88.1678 29.5661 92.6418 32.7689 95.6444C35.9818 98.6371 40.5058 100.138 46.3709 100.138C51.1051 100.138 55.9494 99.2676 60.9038 97.5261C65.8481 95.7746 70.7625 93.4125 75.6468 90.4098C80.5211 87.4172 85.2252 84.0042 89.7592 80.1608C94.2932 76.3274 98.547 72.3539 102.521 68.2402C106.494 64.1366 110.047 59.983 113.18 55.7993C114.861 53.5673 116.383 51.4354 117.744 49.4136C118.765 53.6574 119.265 58.0512 119.265 62.4952C119.265 93.7928 93.8028 119.255 62.4952 119.255Z" fill="#C8B094"/>
</g>
<defs>
<clipPath id="clip0_57_618">
<rect width="124.89" height="124.88" fill="white" transform="scale(1.00088)"/>
</clipPath>
</defs>
</svg>
