<svg width="114" height="50" viewBox="0 0 114 50" fill="none" xmlns="http://www.w3.org/2000/svg">
<path d="M109.854 46.6717C108.887 45.9952 108.404 44.3879 108.404 41.8498V0C106.561 0.319299 104.789 0.53036 103.076 0.644009C101.368 0.757658 99.5956 0.817188 97.7534 0.817188V2.3758H98.226C99.934 2.3758 101.271 2.70592 102.238 3.36075C103.199 4.021 103.688 5.52549 103.688 7.87964V22.286C102.652 21.2902 101.346 20.3918 99.7728 19.6017C98.2046 18.8062 96.4698 18.4111 94.5847 18.4111C91.9315 18.4111 89.5469 19.1146 87.4362 20.5163C85.3255 21.9234 83.6605 23.8013 82.4467 26.1554C81.2329 28.5096 80.626 31.1614 80.626 34.1054C80.626 34.7278 80.6529 35.3393 80.7066 35.9346C78.6979 38.029 76.6141 39.9286 74.4496 41.6333C71.7857 43.7385 69.1648 45.4162 66.5868 46.6717C64.0089 47.9273 61.7585 48.555 59.8465 48.555C59.0355 48.555 58.3588 48.3764 57.8056 48.0301C57.2578 47.6783 56.8228 47.2237 56.5059 46.6717C56.1836 46.1143 55.9527 45.5028 55.8077 44.8317C55.6627 44.1606 55.5929 43.4733 55.5929 42.7752C55.5929 41.314 55.7916 39.8528 56.1998 38.3916C56.6026 36.9358 57.1235 35.6207 57.7627 34.4518C59.6746 34.0459 61.8767 33.4181 64.3687 32.5685C66.8607 31.7242 69.1917 30.7609 71.3668 29.6785C73.5366 28.6016 75.3788 27.4056 76.8826 26.0905C78.3918 24.7754 79.1437 23.417 79.1437 22.0154C79.1437 20.8518 78.7409 19.9589 77.9299 19.3473C77.1135 18.7358 75.9857 18.4273 74.5356 18.4273C71.9307 18.4273 69.2078 19.212 66.3666 20.7923C63.5309 22.3671 60.9207 24.3533 58.5468 26.7453C56.3716 28.9371 54.5563 31.3021 53.0901 33.8565C48.8042 34.7819 44.8621 36.8276 41.0757 40.1072L46.5216 26.2258C47.0157 25.046 47.5904 23.9799 48.2403 23.0274C48.8955 22.0803 50.0073 21.5121 51.5809 21.3335L52.6604 21.1982V19.6342L47.3326 19.8344L40.9951 19.6342V21.1982L42.0746 21.3335C44.2766 21.6041 45.3777 22.4213 45.3777 23.7742C45.3777 24.0502 45.2971 24.4128 45.1413 24.862C44.9802 25.3166 44.8621 25.7008 44.7708 26.0201L38.1701 42.8943C37.9767 43.0999 37.7834 43.3056 37.59 43.522L30.7477 25.8848C30.3878 24.9324 30.2052 24.1639 30.2052 23.574C30.2052 22.9408 30.3878 22.4104 30.7477 21.9775C31.1075 21.5445 31.6876 21.3118 32.4985 21.2631L33.5082 21.1982V19.6342H30.4093C29.6467 19.6342 28.8034 19.7803 27.8797 20.0779C26.9613 20.3702 26.3436 20.9005 26.0268 21.669C25.2641 20.3106 24.0503 19.6342 22.3854 19.6342H20.0276V21.1982L22.1168 21.2631C23.959 21.3551 24.8828 22.3293 24.8828 24.1855C24.8828 24.5481 24.8022 24.9648 24.6465 25.4411C24.4853 25.9173 24.2974 26.426 24.0718 26.9726L16.5849 44.0253L10.0487 25.7495C9.91444 25.3869 9.82314 25.046 9.78018 24.7267C9.73184 24.4128 9.71036 24.1152 9.71036 23.8446C9.71036 22.3076 10.8328 21.4471 13.0832 21.2631L13.7545 21.1982V19.6342L7.1485 19.8344L0 19.6342V21.1982L0.741167 21.2631C1.86903 21.3551 2.78743 21.8314 3.50711 22.6919C4.2268 23.5523 4.85518 24.7267 5.39763 26.2258L13.6901 49.2532H16.252L26.161 26.4964L34.9261 49.2532H37.488L40.356 41.9418C44.2015 38.2834 48.1866 35.9725 52.5208 34.8847C51.0922 37.6069 50.3778 40.21 50.3778 42.6832C50.3778 45.0211 51.0438 46.8178 52.3758 48.0734C53.7077 49.3289 55.5929 49.9567 58.0258 49.9567C59.9915 49.9567 62.0056 49.5887 64.0679 48.8581C66.1196 48.1275 68.1658 47.1371 70.1906 45.8816C72.2208 44.626 74.1757 43.1973 76.0609 41.59C77.7527 40.1505 79.3531 38.6568 80.8516 37.1144C81.1255 38.9057 81.6572 40.5834 82.4467 42.1528C83.6605 44.5773 85.304 46.4931 87.3717 47.8948C89.4341 49.2965 91.7543 50 94.3161 50C96.3839 50 98.2583 49.5346 99.9447 48.6092C101.631 47.6837 103.076 46.4931 104.295 45.0428L105.17 49.7998C106.336 49.5725 107.394 49.4263 108.339 49.356C109.279 49.2856 110.246 49.2532 111.239 49.2532H114V47.6891C112.201 47.6891 110.821 47.3536 109.854 46.6717ZM60.7649 29.1103C61.8928 27.4759 63.1495 25.9444 64.5406 24.5156C65.9316 23.0815 67.3387 21.8855 68.7566 20.9222C70.1745 19.9589 71.4957 19.4772 72.7149 19.4772C73.3486 19.4772 73.8857 19.6829 74.3207 20.0888C74.7558 20.5001 74.9706 21.1116 74.9706 21.9288C74.9706 23.4495 74.3369 24.862 73.0586 26.1771C71.7857 27.4922 70.2658 28.6449 68.4988 29.6352C66.7265 30.631 64.8897 31.459 62.9777 32.1301C61.0657 32.8066 59.4706 33.2558 58.1977 33.4885C58.7777 32.2059 59.6317 30.7447 60.7649 29.1103ZM103.688 43.4084C102.652 44.6802 101.427 45.7571 100.009 46.6392C98.5966 47.5214 96.921 47.9651 94.9875 47.9651C93.054 47.9651 91.2924 47.3536 89.9658 46.1305C88.6392 44.9075 87.651 43.2514 87.0011 41.1679C86.3459 39.0843 86.0237 36.7302 86.0237 34.1054C86.0237 31.4807 86.3566 29.2023 87.0334 27.1404C87.7047 25.0785 88.7198 23.4495 90.0678 22.2481C91.4159 21.0466 93.1238 20.4513 95.1916 20.4513C97.0337 20.4513 98.7202 20.9222 100.245 21.8747C101.776 22.8271 102.92 23.8933 103.688 25.0676V43.4084Z" fill="black"/>
</svg>
